<svg id="Layer_2" xmlns="http://www.w3.org/2000/svg" width="14.767" height="12.53" viewBox="0 0 14.767 12.53">
  <path id="Path_559" data-name="Path 559" d="M17.2,12.754a1.935,1.935,0,0,0-.79.184.758.758,0,0,1-.711-.026,8.694,8.694,0,0,0-2.685-.869.764.764,0,0,1-.632-.948l.395-1.658c.026-.079.079-.132.158-.105l1.5.342a.747.747,0,0,1,.553.526,1.5,1.5,0,0,0,1.4.948,1.474,1.474,0,1,0,0-2.948,1.39,1.39,0,0,0-1.053.447.847.847,0,0,1-.763.237l-1.948-.447a.4.4,0,0,0-.474.263l-.553,2.264a1.344,1.344,0,0,1-1.158,1.027,8.424,8.424,0,0,0-2.922.869.782.782,0,0,1-.684.026,1.914,1.914,0,0,0-.763-.184,1.768,1.768,0,0,0-1.263,3,.758.758,0,0,1,.237.553v.079a3.81,3.81,0,0,0,2,3.159,8.65,8.65,0,0,0,4.606,1.237,8.65,8.65,0,0,0,4.606-1.237,3.844,3.844,0,0,0,2-3.159v-.026a.746.746,0,0,1,.263-.579,1.709,1.709,0,0,0,.553-1.263A1.928,1.928,0,0,0,17.2,12.754ZM8.433,15.518a1.079,1.079,0,0,1,1.079-1.053,1.053,1.053,0,1,1-1.079,1.053Zm5.58,2.974a3.337,3.337,0,0,1-2.422.763h0a3.307,3.307,0,0,1-2.4-.737.435.435,0,0,1-.079-.526.4.4,0,0,1,.632-.079,2.566,2.566,0,0,0,1.843.526h0a2.45,2.45,0,0,0,1.843-.526.409.409,0,1,1,.579.579ZM13.7,16.571a1.053,1.053,0,1,1,0-2.106,1.053,1.053,0,0,1,0,2.106Z" transform="translate(-4.3 -8.2)" fill="#fff"/>
</svg>
