<?xml version="1.0" standalone="no"?>
<!DOCTYPE svg PUBLIC "-//W3C//DTD SVG 20010904//EN"
 "http://www.w3.org/TR/2001/REC-SVG-20010904/DTD/svg10.dtd">
<svg version="1.0" xmlns="http://www.w3.org/2000/svg"
 width="89.000000pt" height="80.000000pt" viewBox="0 0 89.000000 80.000000"
 preserveAspectRatio="xMidYMid meet">

<g transform="translate(0.000000,80.000000) scale(0.100000,-0.100000)"
fill="#000000" stroke="none">
<path d="M323 313 l-43 -4 0 -80 0 -79 -50 0 c-47 0 -50 1 -50 26 0 22 -2 25
-15 14 -13 -11 -15 -5 -15 49 l0 61 -39 0 c-73 0 -71 3 -71 -151 l0 -139 52 0
c34 0 58 6 70 17 17 15 18 15 18 0 0 -14 10 -17 49 -17 48 0 49 1 107 71 l58
72 -37 32 -37 32 41 52 c32 40 37 51 22 49 -10 -1 -37 -3 -60 -5z"/>
<path d="M840 95 l-24 -26 27 -27 27 -27 0 53 c0 28 -1 52 -3 52 -2 0 -14 -11
-27 -25z"/>
</g>
</svg>
