<svg xmlns="http://www.w3.org/2000/svg" width="15.418" height="12.53" viewBox="0 0 15.418 12.53">
  <path id="_104501_twitter_bird_icon" data-name="104501_twitter_bird_icon" d="M18.992,11.809a6.294,6.294,0,0,1-1.817.5,3.169,3.169,0,0,0,1.391-1.75,6.332,6.332,0,0,1-2.009.768,3.166,3.166,0,0,0-5.39,2.885,8.981,8.981,0,0,1-6.52-3.305,3.167,3.167,0,0,0,.979,4.223,3.154,3.154,0,0,1-1.433-.4c0,.013,0,.027,0,.04a3.166,3.166,0,0,0,2.538,3.1,3.18,3.18,0,0,1-.833.111,3.134,3.134,0,0,1-.6-.057,3.167,3.167,0,0,0,2.955,2.2,6.383,6.383,0,0,1-4.683,1.31,9,9,0,0,0,13.849-7.579q0-.206-.009-.41A6.407,6.407,0,0,0,18.992,11.809Z" transform="translate(-3.574 -10.326)" fill="#fff"/>
</svg>
