<svg xmlns="http://www.w3.org/2000/svg" width="16.445" height="12.53" viewBox="0 0 16.445 12.53">
  <path id="_8546766_discord_icon_1_" data-name="8546766_discord_icon (1)" d="M39.943,33.058a.042.042,0,0,0-.021-.02A13.566,13.566,0,0,0,36.574,32a.051.051,0,0,0-.054.025,9.44,9.44,0,0,0-.417.856,12.525,12.525,0,0,0-3.76,0,8.658,8.658,0,0,0-.423-.856A.053.053,0,0,0,31.867,32a13.528,13.528,0,0,0-3.347,1.038.048.048,0,0,0-.022.019,13.869,13.869,0,0,0-2.429,9.356.056.056,0,0,0,.021.038A13.639,13.639,0,0,0,30.2,44.527a.053.053,0,0,0,.058-.019,9.739,9.739,0,0,0,.84-1.366.052.052,0,0,0-.028-.072,8.983,8.983,0,0,1-1.283-.611.053.053,0,0,1-.005-.087c.086-.065.172-.132.255-.2a.051.051,0,0,1,.053-.007,9.729,9.729,0,0,0,8.265,0,.051.051,0,0,1,.054.007c.082.068.169.136.255.2a.053.053,0,0,1,0,.087,8.43,8.43,0,0,1-1.283.611.052.052,0,0,0-.028.073,10.937,10.937,0,0,0,.839,1.365.052.052,0,0,0,.058.02,13.594,13.594,0,0,0,4.113-2.075.053.053,0,0,0,.021-.038A13.778,13.778,0,0,0,39.943,33.058ZM31.5,40.546a1.668,1.668,0,0,1,0-3.314,1.668,1.668,0,0,1,0,3.314Zm5.464,0a1.668,1.668,0,0,1,0-3.314,1.668,1.668,0,0,1,0,3.314Z" transform="translate(-26 -31.999)" fill="#fff"/>
</svg>
